<svg
          id=""
          class="icon-alphalete-logo w-[98%] h-full fill-secondary"
          style="fill:#f5f5f5;"
          data-name="Alphalete Logo"
          xmlns="http://www.w3.org/2000/svg"
          role="presentation"
          viewBox="0 0 274 25"
        >
          <path d="M12.52 0L0 24.93H7.82L10.03 20.15H23.07L25.31 24.93H33.32L20.83 0H12.52ZM12.72 14.37L16.54 6.13L20.38 14.37H12.72ZM44.32 0.019989H36.92V24.94H60.52V18.8H44.32V0.019989ZM86.29 1.5C87.1 1.9 87.8 2.42 88.39 3.05C88.98 3.68 89.45 4.45 89.79 5.34C90.11 6.21 90.28 7.25 90.28 8.42C90.28 9.98 90 11.35 89.45 12.48C88.89 13.62 88.1 14.56 87.1 15.29C86.12 16.01 84.93 16.54 83.57 16.87C82.24 17.2 80.76 17.36 79.17 17.36H71.37V24.93H64.1V0H77.74C78.78 0 79.82 0.04 80.82 0.13C81.83 0.21 82.81 0.36 83.72 0.58C84.64 0.8 85.51 1.11 86.29 1.5ZM81.49 10.93C81.83 10.68 82.09 10.37 82.28 9.98C82.47 9.59 82.57 9.09 82.57 8.51C82.57 7.94 82.47 7.47 82.29 7.12C82.11 6.77 81.86 6.5 81.54 6.3C81.2 6.09 80.77 5.93 80.27 5.84C79.74 5.74 79.14 5.69 78.51 5.69H71.37V11.68H78.52C79.14 11.68 79.71 11.62 80.23 11.49C80.72 11.37 81.14 11.18 81.49 10.93ZM114.56 9.32H101.27V0H93.86V24.93H101.27V15.31H114.56V24.93H121.95V0H114.56V9.32ZM125.54 24.93L138.06 0H146.37L158.87 24.93H150.85L148.61 20.15H135.57L133.36 24.93H125.54ZM142.08 6.13L138.26 14.37H145.92L142.08 6.13ZM169.86 0.019989H162.46V24.94H186.06V18.8H169.86V0.019989ZM210.79 14.78H197.06V19.02H214.22V24.93H189.65V0H214.22V5.89H197.06V9.68H210.79V14.78ZM217.81 6.12H227.94V24.93H235.33V6.12H245.44V0H217.81V6.12ZM256.44 14.78V19.02H273.6V24.93H249.04V0H273.56V5.89H256.44V9.68H270.18V14.78H256.44Z"></path>
        </svg>